<mxfile host="app.diagrams.net" agent="Mozilla/5.0 (Macintosh; Intel Mac OS X 10_15_7) AppleWebKit/537.36 (KHTML, like Gecko) Chrome/131.0.0.0 Safari/537.36 Edg/131.0.0.0" version="24.9.2">
  <diagram name="Page-1" id="1iw1Wp9UAJBK-H1XoUjr">
    <mxGraphModel dx="1050" dy="579" grid="1" gridSize="10" guides="1" tooltips="1" connect="1" arrows="1" fold="1" page="1" pageScale="1" pageWidth="850" pageHeight="1100" math="0" shadow="0">
      <root>
        <mxCell id="0" />
        <mxCell id="1" parent="0" />
        <mxCell id="uij0mXA2pg61K8H2RsBF-4" style="rounded=0;orthogonalLoop=1;jettySize=auto;html=1;exitX=1;exitY=0.5;exitDx=0;exitDy=0;entryX=0;entryY=0.5;entryDx=0;entryDy=0;endArrow=none;endFill=0;startArrow=ERmandOne;startFill=0;" edge="1" parent="1" source="uij0mXA2pg61K8H2RsBF-1" target="uij0mXA2pg61K8H2RsBF-3">
          <mxGeometry relative="1" as="geometry" />
        </mxCell>
        <mxCell id="uij0mXA2pg61K8H2RsBF-8" style="edgeStyle=none;shape=connector;rounded=0;orthogonalLoop=1;jettySize=auto;html=1;exitX=0.25;exitY=0;exitDx=0;exitDy=0;entryX=0.5;entryY=1;entryDx=0;entryDy=0;strokeColor=default;align=center;verticalAlign=middle;fontFamily=Helvetica;fontSize=11;fontColor=default;labelBackgroundColor=default;endArrow=none;endFill=0;" edge="1" parent="1" source="uij0mXA2pg61K8H2RsBF-1" target="uij0mXA2pg61K8H2RsBF-7">
          <mxGeometry relative="1" as="geometry" />
        </mxCell>
        <mxCell id="uij0mXA2pg61K8H2RsBF-1" value="Building" style="whiteSpace=wrap;html=1;align=center;" vertex="1" parent="1">
          <mxGeometry x="170" y="280" width="100" height="40" as="geometry" />
        </mxCell>
        <mxCell id="uij0mXA2pg61K8H2RsBF-11" style="edgeStyle=none;shape=connector;rounded=0;orthogonalLoop=1;jettySize=auto;html=1;exitX=0.5;exitY=0;exitDx=0;exitDy=0;entryX=0.5;entryY=1;entryDx=0;entryDy=0;strokeColor=default;align=center;verticalAlign=middle;fontFamily=Helvetica;fontSize=11;fontColor=default;labelBackgroundColor=default;endArrow=none;endFill=0;" edge="1" parent="1" source="uij0mXA2pg61K8H2RsBF-2" target="uij0mXA2pg61K8H2RsBF-10">
          <mxGeometry relative="1" as="geometry" />
        </mxCell>
        <mxCell id="uij0mXA2pg61K8H2RsBF-13" style="edgeStyle=none;shape=connector;rounded=0;orthogonalLoop=1;jettySize=auto;html=1;exitX=0.5;exitY=0;exitDx=0;exitDy=0;entryX=0.5;entryY=1;entryDx=0;entryDy=0;strokeColor=default;align=center;verticalAlign=middle;fontFamily=Helvetica;fontSize=11;fontColor=default;labelBackgroundColor=default;endArrow=none;endFill=0;" edge="1" parent="1" source="uij0mXA2pg61K8H2RsBF-2" target="uij0mXA2pg61K8H2RsBF-12">
          <mxGeometry relative="1" as="geometry" />
        </mxCell>
        <mxCell id="uij0mXA2pg61K8H2RsBF-16" style="edgeStyle=none;shape=connector;rounded=0;orthogonalLoop=1;jettySize=auto;html=1;exitX=0.5;exitY=1;exitDx=0;exitDy=0;strokeColor=default;align=center;verticalAlign=middle;fontFamily=Helvetica;fontSize=11;fontColor=default;labelBackgroundColor=default;endArrow=none;endFill=0;startArrow=ERmany;startFill=0;" edge="1" parent="1" source="uij0mXA2pg61K8H2RsBF-2">
          <mxGeometry relative="1" as="geometry">
            <mxPoint x="580" y="370" as="targetPoint" />
          </mxGeometry>
        </mxCell>
        <mxCell id="uij0mXA2pg61K8H2RsBF-36" style="edgeStyle=none;shape=connector;rounded=0;orthogonalLoop=1;jettySize=auto;html=1;exitX=1;exitY=0.5;exitDx=0;exitDy=0;entryX=0;entryY=0.5;entryDx=0;entryDy=0;strokeColor=default;align=center;verticalAlign=middle;fontFamily=Helvetica;fontSize=11;fontColor=default;labelBackgroundColor=default;endArrow=none;endFill=0;" edge="1" parent="1" source="uij0mXA2pg61K8H2RsBF-2" target="uij0mXA2pg61K8H2RsBF-35">
          <mxGeometry relative="1" as="geometry" />
        </mxCell>
        <mxCell id="uij0mXA2pg61K8H2RsBF-38" style="edgeStyle=none;shape=connector;rounded=0;orthogonalLoop=1;jettySize=auto;html=1;exitX=1;exitY=0.5;exitDx=0;exitDy=0;entryX=0;entryY=0.5;entryDx=0;entryDy=0;strokeColor=default;align=center;verticalAlign=middle;fontFamily=Helvetica;fontSize=11;fontColor=default;labelBackgroundColor=default;endArrow=none;endFill=0;" edge="1" parent="1" source="uij0mXA2pg61K8H2RsBF-2" target="uij0mXA2pg61K8H2RsBF-37">
          <mxGeometry relative="1" as="geometry" />
        </mxCell>
        <mxCell id="uij0mXA2pg61K8H2RsBF-2" value="Apartment" style="whiteSpace=wrap;html=1;align=center;strokeWidth=3;" vertex="1" parent="1">
          <mxGeometry x="530" y="280" width="100" height="40" as="geometry" />
        </mxCell>
        <mxCell id="uij0mXA2pg61K8H2RsBF-5" style="edgeStyle=none;shape=connector;rounded=0;orthogonalLoop=1;jettySize=auto;html=1;exitX=1;exitY=0.5;exitDx=0;exitDy=0;strokeColor=default;align=center;verticalAlign=middle;fontFamily=Helvetica;fontSize=11;fontColor=default;labelBackgroundColor=default;endArrow=ERoneToMany;endFill=0;" edge="1" parent="1" source="uij0mXA2pg61K8H2RsBF-3" target="uij0mXA2pg61K8H2RsBF-2">
          <mxGeometry relative="1" as="geometry">
            <mxPoint x="520" y="300" as="targetPoint" />
            <Array as="points">
              <mxPoint x="500" y="300" />
            </Array>
          </mxGeometry>
        </mxCell>
        <mxCell id="uij0mXA2pg61K8H2RsBF-3" value="consists of" style="shape=rhombus;perimeter=rhombusPerimeter;whiteSpace=wrap;html=1;align=center;" vertex="1" parent="1">
          <mxGeometry x="340" y="270" width="120" height="60" as="geometry" />
        </mxCell>
        <mxCell id="uij0mXA2pg61K8H2RsBF-7" value="b_number" style="ellipse;whiteSpace=wrap;html=1;align=center;fontFamily=Helvetica;fontSize=11;fontColor=default;labelBackgroundColor=default;" vertex="1" parent="1">
          <mxGeometry x="110" y="210" width="80" height="30" as="geometry" />
        </mxCell>
        <mxCell id="uij0mXA2pg61K8H2RsBF-10" value="&lt;span style=&quot;border-bottom: 1px dotted&quot;&gt;a_number&lt;/span&gt;" style="ellipse;whiteSpace=wrap;html=1;align=center;fontFamily=Helvetica;fontSize=11;fontColor=default;labelBackgroundColor=default;" vertex="1" parent="1">
          <mxGeometry x="600" y="220" width="80" height="30" as="geometry" />
        </mxCell>
        <mxCell id="uij0mXA2pg61K8H2RsBF-12" value="&lt;u&gt;b_number&lt;/u&gt;" style="ellipse;whiteSpace=wrap;html=1;align=center;fontFamily=Helvetica;fontSize=11;fontColor=default;labelBackgroundColor=default;" vertex="1" parent="1">
          <mxGeometry x="500" y="220" width="80" height="30" as="geometry" />
        </mxCell>
        <mxCell id="uij0mXA2pg61K8H2RsBF-24" style="edgeStyle=none;shape=connector;rounded=0;orthogonalLoop=1;jettySize=auto;html=1;exitX=0.5;exitY=1;exitDx=0;exitDy=0;entryX=0.5;entryY=0;entryDx=0;entryDy=0;strokeColor=default;align=center;verticalAlign=middle;fontFamily=Helvetica;fontSize=11;fontColor=default;labelBackgroundColor=default;endArrow=none;endFill=0;" edge="1" parent="1" source="uij0mXA2pg61K8H2RsBF-14" target="uij0mXA2pg61K8H2RsBF-23">
          <mxGeometry relative="1" as="geometry" />
        </mxCell>
        <mxCell id="uij0mXA2pg61K8H2RsBF-26" style="edgeStyle=none;shape=connector;rounded=0;orthogonalLoop=1;jettySize=auto;html=1;exitX=0.5;exitY=1;exitDx=0;exitDy=0;entryX=0.5;entryY=0;entryDx=0;entryDy=0;strokeColor=default;align=center;verticalAlign=middle;fontFamily=Helvetica;fontSize=11;fontColor=default;labelBackgroundColor=default;endArrow=none;endFill=0;" edge="1" parent="1" source="uij0mXA2pg61K8H2RsBF-14" target="uij0mXA2pg61K8H2RsBF-25">
          <mxGeometry relative="1" as="geometry" />
        </mxCell>
        <mxCell id="uij0mXA2pg61K8H2RsBF-28" style="edgeStyle=none;shape=connector;rounded=0;orthogonalLoop=1;jettySize=auto;html=1;exitX=1;exitY=0.5;exitDx=0;exitDy=0;strokeColor=default;align=center;verticalAlign=middle;fontFamily=Helvetica;fontSize=11;fontColor=default;labelBackgroundColor=default;endArrow=none;endFill=0;" edge="1" parent="1" source="uij0mXA2pg61K8H2RsBF-14" target="uij0mXA2pg61K8H2RsBF-27">
          <mxGeometry relative="1" as="geometry" />
        </mxCell>
        <mxCell id="uij0mXA2pg61K8H2RsBF-30" style="edgeStyle=none;shape=connector;rounded=0;orthogonalLoop=1;jettySize=auto;html=1;exitX=0.25;exitY=1;exitDx=0;exitDy=0;entryX=1;entryY=0.5;entryDx=0;entryDy=0;strokeColor=default;align=center;verticalAlign=middle;fontFamily=Helvetica;fontSize=11;fontColor=default;labelBackgroundColor=default;endArrow=none;endFill=0;" edge="1" parent="1" source="uij0mXA2pg61K8H2RsBF-14" target="uij0mXA2pg61K8H2RsBF-29">
          <mxGeometry relative="1" as="geometry">
            <Array as="points" />
          </mxGeometry>
        </mxCell>
        <mxCell id="uij0mXA2pg61K8H2RsBF-32" style="edgeStyle=none;shape=connector;rounded=0;orthogonalLoop=1;jettySize=auto;html=1;exitX=0;exitY=0.25;exitDx=0;exitDy=0;entryX=1;entryY=0.5;entryDx=0;entryDy=0;strokeColor=default;align=center;verticalAlign=middle;fontFamily=Helvetica;fontSize=11;fontColor=default;labelBackgroundColor=default;endArrow=none;endFill=0;" edge="1" parent="1" source="uij0mXA2pg61K8H2RsBF-14" target="uij0mXA2pg61K8H2RsBF-31">
          <mxGeometry relative="1" as="geometry" />
        </mxCell>
        <mxCell id="uij0mXA2pg61K8H2RsBF-14" value="Tenant" style="whiteSpace=wrap;html=1;align=center;fontFamily=Helvetica;fontSize=11;fontColor=default;labelBackgroundColor=default;" vertex="1" parent="1">
          <mxGeometry x="530" y="460" width="100" height="40" as="geometry" />
        </mxCell>
        <mxCell id="uij0mXA2pg61K8H2RsBF-17" style="edgeStyle=none;shape=connector;rounded=0;orthogonalLoop=1;jettySize=auto;html=1;exitX=0.5;exitY=1;exitDx=0;exitDy=0;entryX=0.5;entryY=0;entryDx=0;entryDy=0;strokeColor=default;align=center;verticalAlign=middle;fontFamily=Helvetica;fontSize=11;fontColor=default;labelBackgroundColor=default;endArrow=ERzeroToMany;endFill=0;" edge="1" parent="1" source="uij0mXA2pg61K8H2RsBF-15" target="uij0mXA2pg61K8H2RsBF-14">
          <mxGeometry relative="1" as="geometry" />
        </mxCell>
        <mxCell id="uij0mXA2pg61K8H2RsBF-20" style="edgeStyle=none;shape=connector;rounded=0;orthogonalLoop=1;jettySize=auto;html=1;exitX=1;exitY=0;exitDx=0;exitDy=0;strokeColor=default;align=center;verticalAlign=middle;fontFamily=Helvetica;fontSize=11;fontColor=default;labelBackgroundColor=default;endArrow=none;endFill=0;" edge="1" parent="1" source="uij0mXA2pg61K8H2RsBF-15" target="uij0mXA2pg61K8H2RsBF-19">
          <mxGeometry relative="1" as="geometry" />
        </mxCell>
        <mxCell id="uij0mXA2pg61K8H2RsBF-22" style="edgeStyle=none;shape=connector;rounded=0;orthogonalLoop=1;jettySize=auto;html=1;exitX=1;exitY=1;exitDx=0;exitDy=0;entryX=0;entryY=0.5;entryDx=0;entryDy=0;strokeColor=default;align=center;verticalAlign=middle;fontFamily=Helvetica;fontSize=11;fontColor=default;labelBackgroundColor=default;endArrow=none;endFill=0;" edge="1" parent="1" source="uij0mXA2pg61K8H2RsBF-15" target="uij0mXA2pg61K8H2RsBF-21">
          <mxGeometry relative="1" as="geometry" />
        </mxCell>
        <mxCell id="uij0mXA2pg61K8H2RsBF-15" value="rents" style="shape=rhombus;perimeter=rhombusPerimeter;whiteSpace=wrap;html=1;align=center;fontFamily=Helvetica;fontSize=11;fontColor=default;labelBackgroundColor=default;" vertex="1" parent="1">
          <mxGeometry x="540" y="370" width="80" height="40" as="geometry" />
        </mxCell>
        <mxCell id="uij0mXA2pg61K8H2RsBF-19" value="monthly_rent" style="ellipse;whiteSpace=wrap;html=1;align=center;fontFamily=Helvetica;fontSize=11;fontColor=default;labelBackgroundColor=default;" vertex="1" parent="1">
          <mxGeometry x="650" y="360" width="70" height="30" as="geometry" />
        </mxCell>
        <mxCell id="uij0mXA2pg61K8H2RsBF-21" value="eol_date" style="ellipse;whiteSpace=wrap;html=1;align=center;fontFamily=Helvetica;fontSize=11;fontColor=default;labelBackgroundColor=default;" vertex="1" parent="1">
          <mxGeometry x="630" y="400" width="60" height="30" as="geometry" />
        </mxCell>
        <mxCell id="uij0mXA2pg61K8H2RsBF-23" value="firstname" style="ellipse;whiteSpace=wrap;html=1;align=center;fontFamily=Helvetica;fontSize=11;fontColor=default;labelBackgroundColor=default;" vertex="1" parent="1">
          <mxGeometry x="500" y="550" width="60" height="30" as="geometry" />
        </mxCell>
        <mxCell id="uij0mXA2pg61K8H2RsBF-25" value="lastname" style="ellipse;whiteSpace=wrap;html=1;align=center;fontFamily=Helvetica;fontSize=11;fontColor=default;labelBackgroundColor=default;" vertex="1" parent="1">
          <mxGeometry x="610" y="550" width="70" height="30" as="geometry" />
        </mxCell>
        <mxCell id="uij0mXA2pg61K8H2RsBF-27" value="homephone" style="ellipse;whiteSpace=wrap;html=1;align=center;fontFamily=Helvetica;fontSize=11;fontColor=default;labelBackgroundColor=default;" vertex="1" parent="1">
          <mxGeometry x="700" y="530" width="70" height="30" as="geometry" />
        </mxCell>
        <mxCell id="uij0mXA2pg61K8H2RsBF-29" value="employer_name" style="ellipse;whiteSpace=wrap;html=1;align=center;fontFamily=Helvetica;fontSize=11;fontColor=default;labelBackgroundColor=default;" vertex="1" parent="1">
          <mxGeometry x="375" y="525" width="100" height="40" as="geometry" />
        </mxCell>
        <mxCell id="uij0mXA2pg61K8H2RsBF-31" value="employer_phone" style="ellipse;whiteSpace=wrap;html=1;align=center;fontFamily=Helvetica;fontSize=11;fontColor=default;labelBackgroundColor=default;" vertex="1" parent="1">
          <mxGeometry x="360" y="470" width="100" height="40" as="geometry" />
        </mxCell>
        <mxCell id="uij0mXA2pg61K8H2RsBF-35" value="asking_montly_rent" style="ellipse;whiteSpace=wrap;html=1;align=center;fontFamily=Helvetica;fontSize=11;fontColor=default;labelBackgroundColor=default;" vertex="1" parent="1">
          <mxGeometry x="680" y="260" width="100" height="40" as="geometry" />
        </mxCell>
        <mxCell id="uij0mXA2pg61K8H2RsBF-37" value="date_available" style="ellipse;whiteSpace=wrap;html=1;align=center;fontFamily=Helvetica;fontSize=11;fontColor=default;labelBackgroundColor=default;" vertex="1" parent="1">
          <mxGeometry x="685" y="310" width="100" height="30" as="geometry" />
        </mxCell>
      </root>
    </mxGraphModel>
  </diagram>
</mxfile>
